<svg xmlns="http://www.w3.org/2000/svg" viewBox="0 0 334.518 60">
  <linearGradient gradientTransform="rotate(25)" id="a" x1="0%" y1="0%" x2="100%" y2="0%">
    <stop offset="0%" stop-color="#e90dda"/>
    <stop offset="100%" stop-color="#15cff1"/>
  </linearGradient>
  <path d="M7.98 9.88q0 .16-.03.41H1.93q.13.98.86 1.58.74.59 1.83.59 1.33 0 2.14-.9l.74.87q-.5.59-1.25.9-.75.31-1.67.31-1.18 0-2.09-.49-.91-.48-1.41-1.35-.49-.87-.49-1.96 0-1.08.48-1.94.48-.87 1.33-1.36.85-.48 1.91-.48 1.07 0 1.9.48.83.49 1.3 1.36.47.86.47 1.98zM4.31 7.2q-.96 0-1.62.58-.65.59-.76 1.54h4.76q-.11-.93-.76-1.53-.65-.59-1.62-.59zm6.82.18q.35-.65 1.04-.98.68-.34 1.66-.34v1.3q-.11-.01-.31-.01-1.09 0-1.71.65-.62.65-.62 1.86v3.69H9.84V6.13h1.29v1.25zm4.45 6.17V6.13h1.35v7.42h-1.35zm.67-8.85q-.39 0-.65-.25t-.26-.61q0-.37.26-.63t.65-.26q.4 0 .66.25.25.24.25.61 0 .38-.25.64-.26.25-.66.25zm9.5 8.85h-1.53l-2.14-2.84-2.17 2.84h-1.5l2.93-3.79-2.79-3.63h1.5l2.04 2.68 2.03-2.68h1.47l-2.8 3.63 2.96 3.79zm5.43-7.49q1.41 0 2.24.82.84.82.84 2.4v4.27h-1.35V9.44q0-1.08-.51-1.63-.52-.54-1.49-.54-1.09 0-1.72.63-.63.64-.63 1.83v3.82h-1.34V3.16h1.34v4.02q.42-.53 1.1-.82.68-.3 1.52-.3zm12.28 3.82q0 .16-.03.41h-6.02q.12.98.86 1.58.73.59 1.83.59 1.33 0 2.14-.9l.74.87q-.5.59-1.25.9-.75.31-1.68.31-1.17 0-2.08-.49-.91-.48-1.41-1.35-.5-.87-.5-1.96 0-1.08.49-1.94.48-.87 1.33-1.36.84-.48 1.91-.48 1.06 0 1.9.48.83.49 1.3 1.36.47.86.47 1.98zM39.79 7.2q-.97 0-1.62.58-.65.59-.76 1.54h4.76q-.11-.93-.76-1.53-.66-.59-1.62-.59zm9.49-1.14q1.41 0 2.25.82.83.82.83 2.4v4.27h-1.34V9.44q0-1.08-.52-1.63-.52-.54-1.49-.54-1.09 0-1.72.63-.63.64-.63 1.83v3.82h-1.34V6.13h1.29v1.12q.4-.57 1.09-.88.7-.31 1.58-.31zm7.7 7.58q-.91 0-1.75-.25-.84-.24-1.32-.62l.56-1.07q.49.35 1.19.56.7.21 1.42.21 1.76 0 1.76-1 0-.34-.24-.54-.23-.19-.59-.28-.36-.09-1.02-.21-.89-.14-1.46-.32t-.97-.61q-.41-.44-.41-1.22 0-1.01.84-1.62.84-.61 2.26-.61.74 0 1.48.18.74.19 1.22.49l-.58 1.07q-.91-.59-2.14-.59-.85 0-1.3.28-.45.28-.45.74 0 .37.25.58.26.21.63.3.37.1 1.04.23.9.15 1.45.33.55.17.94.59.4.42.4 1.18 0 1.01-.87 1.6-.86.6-2.34.6z" fill="url(#a)" transform="translate(-3.312 -16.558) scale(5.61272)"/>
</svg>
